<?xml version="1.0" encoding="UTF-8"?>
<svg xmlns="http://www.w3.org/2000/svg" xmlns:xlink="http://www.w3.org/1999/xlink" width="72pt" height="55pt" viewBox="0 0 72 55" version="1.1">
<defs>
<linearGradient id="linear0" gradientUnits="userSpaceOnUse" x1="0.379726" y1="0.169989" x2="0.911208" y2="0.76326" gradientTransform="matrix(72,0,0,47.960938,0,0)">
<stop offset="0" style="stop-color:rgb(78.823529%,79.607843%,80.784314%);stop-opacity:1;"/>
<stop offset="1" style="stop-color:rgb(48.235294%,47.843137%,50.588235%);stop-opacity:1;"/>
</linearGradient>
</defs>
<g id="surface1">
<path style=" stroke:none;fill-rule:nonzero;fill:url(#linear0);" d="M 42 42.554688 C 27 42.554688 14.253906 34.945312 14.253906 25.824219 C 14.253906 16.707031 25.5 9.121094 40.5 9.121094 C 59.445312 9.121094 68.222656 16.503906 68.222656 25.621094 C 68.222656 34.742188 58.546875 42.554688 42 42.554688 M 36 0 C 16.5 0 0 10.640625 0 24.316406 C 0 37.238281 16.398438 47.960938 35.902344 47.960938 C 55.398438 47.960938 72 37.996094 72 24.316406 C 72 10.640625 55.5 0 36 0 "/>
<path style=" stroke:none;fill-rule:nonzero;fill:rgb(12.941176%,39.607843%,71.372549%);fill-opacity:1;" d="M 29.796875 14.769531 L 29.796875 54.980469 L 41.789062 54.980469 L 41.789062 39.34375 C 44.789062 39.34375 46.574219 38.679688 48.535156 42.324219 C 51.535156 47.535156 55.28125 54.980469 55.28125 54.980469 L 69.523438 54.980469 C 69.523438 54.980469 60.53125 40.089844 59.78125 39.34375 C 58.398438 37.855469 56.78125 37.855469 54.535156 37.109375 C 59.03125 36.367188 63.222656 34.476562 64.679688 30.421875 C 65.957031 26.699219 65.804688 21.964844 63.074219 18.789062 C 60.707031 16.273438 58.28125 14.769531 52.285156 14.769531 Z M 41.789062 23.144531 L 49.660156 23.144531 C 51.527344 23.144531 53.035156 25.007812 53.035156 26.867188 C 53.035156 28.730469 51.535156 30.589844 49.660156 30.589844 L 41.789062 30.589844 Z M 41.789062 23.144531 "/>
</g>
</svg>
